<svg width="218" height="101" viewBox="0 0 218 101" fill="none" xmlns="http://www.w3.org/2000/svg">
<path d="M176.569 100.413C175.557 100.413 174.376 100.317 173.026 100.124C171.677 99.9312 170.182 99.6178 168.543 99.184L165.795 98.3163L168.832 89.3501L171.797 89.567C172.52 89.6152 173.243 89.6634 173.966 89.7116C174.689 89.7598 175.34 89.7839 175.919 89.7839C177.317 89.7839 178.449 89.5188 179.317 88.9886C180.185 88.4583 180.932 87.687 181.559 86.6747L183.8 82.7701L184.306 85.7347H183.366L174.906 47.9899H187.777L191.465 71.49H191.899L203.757 47.9899H217.568L191.031 92.387C189.247 95.3276 187.15 97.4004 184.74 98.6055C182.33 99.8106 179.606 100.413 176.569 100.413Z" fill="white"/>
<path d="M141.949 85.3008L147.227 57.9684H139.49L141.265 47.9899H149.179L150.409 41.5545C151.18 37.5053 152.891 34.5888 155.542 32.8052C158.194 31.0216 161.737 30.1298 166.172 30.1298C167.666 30.1298 169.281 30.3227 171.016 30.7083C172.8 31.0457 174.367 31.4073 175.716 31.7929L177.09 32.1545L173.909 40.6868L172.824 40.5422C172.053 40.4458 171.306 40.3735 170.582 40.3253C169.859 40.2289 169.233 40.1806 168.702 40.1806C166.581 40.1806 165.063 40.4699 164.147 41.0483C163.231 41.6268 162.629 42.5909 162.339 43.9407L161.616 47.9899H172.535L170.51 57.9684H159.592L154.313 85.3008H141.949Z" fill="white"/>
<path d="M116.705 85.3008L123.936 47.9899H136.301L128.997 85.3008H116.705Z" fill="white"/>
<path d="M125.165 40.6732L128.997 20.6191L55.3992 38.6961C55.3992 38.6961 55.4109 37.1871 56.529 35.8715C59.17 32.7646 61.6132 31.9172 61.6132 31.9172L147.196 0L140.418 27.6804L137.458 40.6732H125.165Z" fill="white"/>
<path d="M110.541 84.867C109.626 85.2044 108.613 85.4455 107.504 85.5901C106.444 85.7829 105.432 85.8793 104.468 85.8793C101.623 85.8793 99.3819 85.3973 97.7429 84.4332C96.1039 83.469 95.0193 82.0952 94.489 80.3116C94.007 78.4798 93.9829 76.3829 94.4167 74.0208L102.588 31.9375L115.458 29.6237L106.998 73.1531C106.757 74.1654 106.878 74.9126 107.36 75.3947C107.89 75.8285 108.71 76.0454 109.818 76.0454C110.349 76.0454 110.855 76.0454 111.337 76.0454C111.867 75.9972 112.373 75.949 112.855 75.9008L110.541 84.867Z" fill="white"/>
<path d="M67.7283 85.8793C63.5826 85.8793 60.0878 84.9634 57.2436 83.1316C54.4477 81.2998 52.4472 78.8172 51.2421 75.6839C50.0851 72.5505 49.8923 69.0556 50.6636 65.1992C51.3385 61.7766 52.5918 58.7156 54.4236 56.0161C56.2554 53.3166 58.7139 51.1956 61.799 49.653C64.9324 48.1104 68.7647 47.3391 73.296 47.3391C76.5258 47.3391 79.2976 47.8935 81.6114 49.0022C83.9735 50.1109 85.8535 51.6294 87.2515 53.5576C88.6976 55.4858 89.6376 57.7033 90.0715 60.21C90.5535 62.6684 90.5294 65.2715 89.9992 68.0192C89.2761 71.731 87.9504 74.9367 86.0222 77.6362C84.094 80.2875 81.5873 82.3362 78.5022 83.7824C75.4653 85.1803 71.874 85.8793 67.7283 85.8793ZM68.6683 75.467C71.0304 75.467 72.9586 74.8885 74.4529 73.7316C75.9955 72.5264 77.0319 70.4295 77.5622 67.4408C77.996 65.4644 78.0442 63.7531 77.7068 62.3069C77.4176 60.8607 76.7668 59.752 75.7545 58.9807C74.7904 58.1612 73.4647 57.7515 71.7776 57.7515C69.3191 57.7515 67.3668 58.3782 65.9206 59.6315C64.4744 60.8848 63.4862 62.9818 62.956 65.9223C62.5221 68.1397 62.498 69.9715 62.8837 71.4177C63.2693 72.8157 63.9683 73.8521 64.9806 74.527C65.9929 75.1536 67.2221 75.467 68.6683 75.467Z" fill="white"/>
<path d="M0 85.3008L9.83389 34.6852H33.4063C37.6966 34.6852 41.1192 35.4324 43.674 36.9268C46.2771 38.4212 48.0607 40.4699 49.0248 43.073C49.9889 45.6279 50.1577 48.5684 49.531 51.8945C48.8561 55.5582 47.4341 58.5469 45.2648 60.8607C43.0956 63.1264 40.155 64.7895 36.4432 65.85C32.7314 66.8623 28.176 67.3685 22.777 67.3685H16.3416L12.7985 85.3008H0ZM18.1493 57.9684H28.3447C30.8514 57.9684 32.7796 57.4864 34.1294 56.5223C35.5273 55.5099 36.4432 53.9192 36.8771 51.7499C37.3109 49.8217 37.0458 48.3033 36.0817 47.1945C35.1176 46.0376 33.4545 45.4591 31.0924 45.4591H20.5355L18.1493 57.9684ZM31.6709 85.3008L23.717 66.4285L35.7925 64.1869L45.4817 85.3008H31.6709Z" fill="white"/>
</svg>
